<svg version="1.1" xmlns="http://www.w3.org/2000/svg" xmlns:xlink="http://www.w3.org/1999/xlink" x="0px" y="0px"
	 viewBox="0 0 2500 2500" style="enable-background:new 0 0 2500 2500;" xml:space="preserve">
<style type="text/css">
	.st0{fill:#006699;}
	.st1{fill:#FFFFFF;}
</style>
<g>
	<path class="st0" d="M5,183.4C5,84.9,87.4,5,189,5H2311c101.6,0,184,79.9,184,178.4v2133.3c0,98.5-82.4,178.3-184,178.3H189
		c-101.6,0-184-79.8-184-178.3V183.4L5,183.4z"/>
	<path class="st1" d="M761.7,2088.8v-1121H389.1v1121H761.7L761.7,2088.8z M575.5,814.8c129.9,0,210.8-86.1,210.8-193.7
		c-2.4-110-80.9-193.7-208.3-193.7c-127.5,0-210.8,83.7-210.8,193.7c0,107.6,80.8,193.7,205.9,193.7L575.5,814.8L575.5,814.8z
		 M967.9,2088.8h372.6v-626c0-33.5,2.4-67,12.3-90.9c26.9-67,88.2-136.3,191.2-136.3c134.8,0,188.7,102.8,188.7,253.5v599.6h372.6
		V1446c0-344.3-183.8-504.5-428.9-504.5c-201,0-289.2,112.3-338.3,188.8h2.5V967.8H967.9C972.8,1073,967.9,2088.8,967.9,2088.8
		L967.9,2088.8z"/>
</g>
</svg>
