<svg xmlns="http://www.w3.org/2000/svg" x="0px" y="0px" viewBox="0 0 2500 1755.8" style="enable-background:new 0 0 2500 1755.8;">
<style type="text/css">
	.st0{fill:#FFFFFF;}
	.st1{fill:#E8E0E0;}
	.st2{fill:#CD201F;}
</style>
<path class="st0" d="M1665.3,852.3c-229.2-122.5-448.7-235.1-673.1-352.7V1203c236.1-128.3,484.9-245.9,674-350.7L1665.3,852.3
	L1665.3,852.3z" />
<path class="st1" d="M1665.3,852.3c-229.2-122.5-673.1-352.7-673.1-352.7l591.7,397.7C1584,897.4,1476.2,957.1,1665.3,852.3
	L1665.3,852.3z" />
<path class="st2" d="M1035.4,1753.6c-476.1-8.8-638.7-16.7-738.7-37.2c-67.6-13.7-126.4-44.1-169.5-88.1
	c-33.3-33.3-59.8-84.2-80.3-154.8c-17.6-58.8-24.5-107.7-34.3-227.3c-15-269.8-18.6-490.3,0-736.7c15.3-136.2,22.7-297.7,124.4-392
	C185,73.4,240.8,45,303.6,33.3C401.6,14.7,818.9,0,1251,0c431.1,0,849.4,14.7,947.4,33.3c78.3,14.7,151.8,58.8,194.9,115.6
	c92.8,145.9,94.4,327.4,103.8,469.3c3.9,67.6,3.9,451.6,0,519.2c-14.7,224.3-26.4,303.7-59.7,385.9c-20.6,51.9-38.2,79.4-68.6,109.7
	c-47.7,46.8-108.6,77.8-174.4,89.1C1782.3,1753.2,1432.5,1760,1035.4,1753.6L1035.4,1753.6z M1666.3,852.3
	c-229.2-122.5-448.7-236.1-673.1-353.7V1202c236.1-128.3,485-245.9,674-350.7L1666.3,852.3L1666.3,852.3z" />
</svg>
